<svg xmlns="http://www.w3.org/2000/svg" viewBox="0 0 155 36"><defs><style>.cls-1,.cls-4{fill:#0dc270;}.cls-2{fill:#27213d;}.cls-3{fill:#fff;}.cls-4{opacity:0.15;}</style></defs><title>Axilweb-logo</title><g id="Layer_2" data-name="Layer 2"><g id="Layer_1-2" data-name="Layer 1"><rect class="cls-1" width="35.98" height="36" rx="3" ry="3"/><path class="cls-2" d="M57.46,12.65H60v16H57.35L57,26.73a7.8,7.8,0,0,1-2.59,1.73A8.7,8.7,0,0,1,47,28a7.84,7.84,0,0,1-3-3,8.53,8.53,0,0,1-1.09-4.29A8.51,8.51,0,0,1,44,16.36a7.77,7.77,0,0,1,3-3,8.81,8.81,0,0,1,7.49-.47,7.7,7.7,0,0,1,2.6,1.77ZM47.73,24.42a5.43,5.43,0,0,0,7.49,0,5.16,5.16,0,0,0,1.48-3.76,5.12,5.12,0,0,0-1.48-3.75,5.43,5.43,0,0,0-7.49,0,5.12,5.12,0,0,0-1.49,3.75A5.13,5.13,0,0,0,47.73,24.42Z"/><path class="cls-2" d="M77.81,28.69h-3.7l-4-6.1-4,6.1H62.48l5.69-8.29-5.25-7.74h3.7l3.53,5.39,3.64-5.39h3.62L72.1,20.24Z"/><path class="cls-2" d="M80.49,10.18V6.92h3.4v3.26Zm.06,18.51v-16h3.28v16Z"/><path class="cls-2" d="M87.49,28.69V6.92h3.28V28.69Z"/><path class="cls-2" d="M114.51,12.66h3.3l-5.36,16h-2.66l-4.13-9.76-4.1,9.76H98.9l-5.35-16h3.38l3.61,10.8,4.59-10.63h1.07l4.64,10.71Z"/><path class="cls-2" d="M135.38,20.72a9,9,0,0,1-.08,1.07h-13a4.72,4.72,0,0,0,4.9,4.2,5.22,5.22,0,0,0,2.54-.62,4.55,4.55,0,0,0,1.75-1.73H135a8.27,8.27,0,0,1-3,4,8.11,8.11,0,0,1-4.74,1.45,7.87,7.87,0,0,1-5.86-2.42,8.22,8.22,0,0,1-2.36-6,8.75,8.75,0,0,1,1.07-4.29,7.92,7.92,0,0,1,3-3,8.22,8.22,0,0,1,4.2-1.09,8,8,0,0,1,4.26,1.14,7.63,7.63,0,0,1,2.89,3.05A9,9,0,0,1,135.38,20.72Zm-8.16-5.48a4.79,4.79,0,0,0-3.12,1,5,5,0,0,0-1.7,2.84h9.68a5.06,5.06,0,0,0-1.74-2.85A4.86,4.86,0,0,0,127.22,15.24Z"/><path class="cls-2" d="M146.68,12.27a8,8,0,0,1,6,2.38,8.22,8.22,0,0,1,2.35,6,8.23,8.23,0,0,1-2.35,6,8,8,0,0,1-6,2.4A7.79,7.79,0,0,1,141,26.86l-.42,1.83h-2.49V6.92h3.29v7.22A7.91,7.91,0,0,1,146.68,12.27Zm-4,12.14a5.43,5.43,0,0,0,7.49,0,5.12,5.12,0,0,0,1.48-3.76,5.13,5.13,0,0,0-1.48-3.76,5,5,0,0,0-3.74-1.5,5.14,5.14,0,0,0-5.25,5.26A5.08,5.08,0,0,0,142.67,24.41Z"/><path class="cls-3" d="M29.06,18V29.08H21.44V17.92a3.52,3.52,0,0,0-.28-1.3A3.46,3.46,0,1,0,18,21.46a3.58,3.58,0,0,0,.87-.11l.12,0,.12,0,.08,0a3.85,3.85,0,0,0,.73-.37v8A11.08,11.08,0,1,1,16.23,7.06,11.3,11.3,0,0,1,18,6.92a11.07,11.07,0,0,1,11.07,11Z"/><path class="cls-4" d="M29.06,18V29.08H21.44V17.92a3.52,3.52,0,0,0-.28-1.3A3.46,3.46,0,1,0,18,21.46a3.58,3.58,0,0,0,.87-.11,7.18,7.18,0,0,1-2.09.3A7.31,7.31,0,0,1,12.84,8.19a11.1,11.1,0,0,1,3.39-1.13A11.3,11.3,0,0,1,18,6.92a11.07,11.07,0,0,1,11.07,11Z"/></g></g></svg>