<svg width="774" height="212" viewBox="0 0 774 212" fill="none" xmlns="http://www.w3.org/2000/svg">
<path d="M555.1 190.1C554.9 194.2 553.8 197.9 551.7 201.1C549.7 204.3 546.8 206.7 543.1 208.5C539.4 210.2 535.2 211.1 530.4 211.1C522.6 211.1 516.4 208.6 511.9 203.5C507.4 198.4 505.2 191.2 505.2 181.9V179C505.2 173.2 506.2 168.1 508.2 163.7C510.2 159.3 513.2 155.9 517 153.6C520.8 151.2 525.2 150 530.2 150C537.4 150 543.2 151.9 547.6 155.7C552 159.5 554.5 164.7 555.1 171.4H540.8C540.7 167.8 539.8 165.2 538.1 163.6C536.4 162 533.8 161.2 530.3 161.2C526.7 161.2 524.1 162.5 522.4 165.2C520.7 167.9 519.9 172.1 519.8 178V182.2C519.8 188.6 520.6 193.1 522.2 195.8C523.8 198.5 526.5 199.9 530.4 199.9C533.7 199.9 536.2 199.1 538 197.6C539.7 196 540.7 193.6 540.8 190.2H555.1V190.1Z" fill="white"/>
<path d="M579.3 199.2H607.8V210.2H561.4V202.7L589.8 161.8H561.2V150.7H607.5V158.1L579.3 199.2Z" fill="white"/>
<path d="M653.8 185H631.2V199.2H657.9V210.2H616.9V150.7H658V161.8H631.2V174.3H653.8V185Z" fill="white"/>
<path d="M713.2 190.1C713 194.2 711.9 197.9 709.8 201.1C707.8 204.3 704.9 206.7 701.2 208.5C697.5 210.2 693.3 211.1 688.5 211.1C680.7 211.1 674.5 208.6 670 203.5C665.5 198.4 663.3 191.2 663.3 181.9V179C663.3 173.2 664.3 168.1 666.3 163.7C668.3 159.3 671.3 155.9 675.1 153.6C678.9 151.2 683.3 150 688.3 150C695.5 150 701.3 151.9 705.7 155.7C710.1 159.5 712.6 164.7 713.2 171.4H698.9C698.8 167.8 697.9 165.2 696.2 163.6C694.5 162 691.9 161.2 688.4 161.2C684.8 161.2 682.2 162.5 680.5 165.2C678.8 167.9 678 172.1 677.9 178V182.2C677.9 188.6 678.7 193.1 680.3 195.8C681.9 198.5 684.6 199.9 688.5 199.9C691.8 199.9 694.3 199.1 696.1 197.6C697.8 196 698.8 193.6 698.9 190.2H713.2V190.1Z" fill="white"/>
<path d="M769.7 210.2H755.5V185.4H734.3V210.2H720V150.7H734.3V174.3H755.5V150.7H769.7V210.2Z" fill="white"/>
<path d="M0.799805 172.4V152.3C1.3998 151.1 1.99985 151.3 2.59985 151.3C20.3999 151.3 38.1998 151.2 55.9998 151.4C58.3998 151.4 60.6999 151.2 63.0999 151.2C90.8999 151.2 118.6 151.2 146.4 151.2C151.6 151.2 156.8 151.2 161.9 151.2C167.2 151.2 172.5 151.2 177.8 151.2H193.5H209.4H225.1H241H256.7H272.6H288.3H304.2H319.9H335.8H351.5H367.4H383.1H399H414.7H430.6H446.3H462.2C467.4 151.2 472.6 151.2 477.9 151.2C479.3 151.2 480.8 150.9 482.3 151.6C482.9 155 482.5 158.4 482.6 161.8C482.7 165.2 482.6 168.6 482.6 171.8C482.4 172.1 482.4 172.2 482.3 172.3C482.2 172.4 482.2 172.5 482.1 172.5C322 172.5 161.9 172.6 1.7998 172.6C1.5998 172.6 1.1998 172.5 0.799805 172.4Z" fill="#DE1A1B"/>
<path d="M297.4 112.9H271.4C258.4 87.4 245.3 61.6 232.1 35.8C231.9 35.9 231.6 35.9 231.4 36V113C227.6 113.3 224.1 113.1 220.6 113.1C217.1 113.1 213.5 113.1 210.2 113.1C209.9 112.8 209.7 112.8 209.6 112.7C209.5 112.6 209.4 112.5 209.4 112.3C209.4 76.4 209.3 40.4 209.3 4.5C209.3 4.1 209.5 3.7 209.6 3.2H238.5C250.5 27.1 262.7 51.3 274.9 75.4C275.3 75.3 275.5 75.3 275.6 75.3C275.7 75.2 275.8 75.1 275.8 75C275.9 74.6 276 74.2 276 73.8C276 50.4 276 27 276 3.10001C279.5 3.10001 283 3 286.5 3C290 3 293.6 3 297.1 3C297.9 6 298.1 107.5 297.4 112.9Z" fill="white"/>
<path d="M688 94.9001C693.8 90.5001 699.3 86.3001 705 81.9001C706.2 83.3001 707.2 84.5001 708.2 85.7001C713.3 91.8001 719.9 94.9001 727.8 95.3001C733 95.5001 738.2 95.6001 743.2 93.7001C747.8 91.9001 750.3 88.5001 750.8 83.8001C751.2 79.3001 749 75.6001 745 73.2001C740.5 70.5001 735.4 69.4001 730.4 68.0001C723.3 66.0001 716.1 64.3001 709.3 61.4001C701.4 58.0001 694.8 53.2001 691.8 44.6001C687 30.5001 691.3 11.4001 709.1 4.50012C714.5 2.40012 720.1 1.30012 725.9 1.10012C732.2 0.800122 738.5 0.800122 744.7 2.10012C754.7 4.20012 763.1 9.00012 769.2 17.3001C769.8 18.2001 770.3 18.9001 771 20.2001C765.7 24.4001 759.4 29.4001 754 33.6001C753.4 32.8001 753.1 32.0001 752.5 31.3001C748.9 26.2001 743.9 22.6001 737.9 21.4001C731.3 20.1001 724.6 20.0001 718.3 23.2001C715.1 24.8001 713.3 27.3001 713 30.9001C712.6 34.8001 713.9 37.9001 717.2 40.0001C719.6 41.5001 722.3 42.6001 725.1 43.4001C732.1 45.4001 739.1 47.2001 746 49.1001C752.5 50.9001 758.6 53.4001 763.9 57.9001C769.2 62.5001 772.5 68.2001 773.1 75.1001C773.7 81.3001 773.8 87.7001 771.6 93.8001C769.6 99.2001 766.6 103.8 761.9 107.2C756.5 111.1 750.4 113.3 743.8 114.3C734.8 115.7 725.8 115.8 716.8 114.1C704.9 111.8 695 106 688 94.9001Z" fill="white"/>
<path d="M379.9 3.1999H405.9C392.2 19.0999 378.8 34.5999 365.2 50.2999C379.7 70.9999 394.2 91.6999 408.9 112.8C404.2 113.4 399.8 113 395.4 113C390.9 113.1 386.4 113 381.4 113C371.1 97.9999 361.3 82.5999 350.9 67.1999C348.2 69.3999 346.4 72.3999 343.9 74.8999V112.8H321.8V3.29991C325.3 2.59991 329 3.09991 332.6 2.99991C336.1 2.89991 339.7 2.99991 343.5 2.99991C344.1 6.59991 343.7 10.0999 343.8 13.5999C343.9 16.9999 343.8 20.4999 343.8 23.8999V34.5999V45.7999C350.7 38.4999 356.3 31.1999 362.3 24.1999C368.3 17.1999 374.1 10.1999 379.9 3.1999Z" fill="white"/>
<path d="M576.5 22.6999H528.7C527.8 25.3999 527.5 39.8999 528.3 46.2999H569C569.8 49.7999 569.3 53.0999 569.4 56.2999C569.5 59.3999 569.4 62.5999 569.4 66.1999H528.2V92.7999H576.8V113H506.2C505.3 112.4 505.5 111.4 505.5 110.4C505.5 79.3999 505.5 48.3999 505.6 17.3999C505.6 13.6999 505.4 9.9999 505.5 6.3999C505.5 5.4999 505.3 4.4999 506 3.3999H576.5C576.9 5.8999 577.1 16.7999 576.5 22.6999Z" fill="white"/>
<path d="M491.6 112.9H423.6C422.9 110.1 422.7 8.9 423.3 3.6C426.1 2.9 441.3 2.69999 445.6 3.49999V47.7V92C445.9 92.3 446 92.4 446.1 92.5C446.2 92.6 446.3 92.7 446.4 92.7C461.3 92.7 476.3 92.7 491.1 92.7C492 95.5 492.2 106.7 491.6 112.9Z" fill="white"/>
<path d="M80.1001 65.7C76.0001 59.3 69.6 56.4 62.5 54.8C61.4 54.5 59.9001 55 59.1001 53.5C60.4001 53.1 61.7 52.7 62.9 52.3C70.9 49.4 75.9 43.8 77.5 35.5C78.2 32.1 78 28.7 77.8 25.2C77.3 15.8 71.5 9.10004 62.5 6.10004C55.5 3.80004 48.4001 3.10004 41.1001 3.10004C28.3001 3.10004 15.6 3.10004 2.80005 3.10004C1.90005 3.10004 0.9 2.80003 0 3.50003V112.5C0.6 113.2 1.20007 113.2 1.70007 113.2C15.8001 113.2 30.0001 113.3 44.1001 113.1C51.2001 113 58.2 111.9 65 109.4C74.1 105.9 80.6001 100.1 83.1001 90.4C83.7001 88 83.9001 85.5 84.1001 83.1C84.7001 76.8 83.5001 70.9 80.1001 65.7ZM22.6001 22.5C26.7001 22.5 31.0001 22.5 35.2001 22.5C39.2001 22.5 43.1 22.5 47 23.4C52.6 24.7 55.4001 27.7 55.6001 32.8C55.9001 38.8 53.4001 42.7 48.1001 44.5C45.8001 45.3 43.4 45.9 40.9 45.9C35.4 45.9 30 45.9 24.5 46C23.8 46 23.1 46.1 22.5 45.6C22 42.2 22.0001 26.1 22.6001 22.5ZM56.7001 89.7001C54.2001 91.6001 51.1 92.5001 47.9 92.7001C40 93.3001 32.1001 93.4 24.2001 93.3C23.7001 93.3 23.1001 93.3 22.7001 92.8C22.0001 89.9 22.0001 69.5 22.7001 65.5C31.3001 65.7 39.8001 65.1 48.2001 66.2C50.1001 66.4 51.9001 66.9 53.7001 67.5C57.7001 68.8 60.3 71.5 60.9 75.6C61.9 81 61.4001 86.1001 56.7001 89.7001Z" fill="white"/>
<path d="M158.4 3.2002H129.1C117 39.7002 104.9 76.3002 92.7998 113H115C117.3 105.7 119.7 98.4002 122 91.1002H164.7C167.2 98.6002 169.6 105.9 171.9 112.9H194.7C182.6 76.1002 170.5 39.6002 158.4 3.2002ZM128.7 71.1002C130.8 63.4002 133.4 56.2002 135.7 48.9002C138 41.5002 140.6 34.2002 143.3 25.9002C146.4 34.0002 148.5 41.4002 150.9 48.6002C153.3 56.0002 155.7 63.3002 158.2 71.2002H128.7V71.1002Z" fill="white"/>
<path d="M590.9 94.9001C596.7 90.5001 602.2 86.3001 607.9 81.9001C609.1 83.3001 610.1 84.5001 611.1 85.7001C616.2 91.8001 622.8 94.9001 630.7 95.3001C635.9 95.5001 641.1 95.6001 646.1 93.7001C650.7 91.9001 653.2 88.5001 653.7 83.8001C654.1 79.3001 651.9 75.6001 647.9 73.2001C643.4 70.5001 638.3 69.4001 633.3 68.0001C626.2 66.0001 619 64.3001 612.2 61.4001C604.3 58.0001 597.7 53.2001 594.7 44.6001C589.9 30.5001 594.2 11.4001 612 4.50012C617.4 2.40012 623 1.30012 628.8 1.10012C635.1 0.800122 641.4 0.800122 647.6 2.10012C657.6 4.20012 666 9.00012 672.1 17.3001C672.7 18.2001 673.2 18.9001 673.9 20.2001C668.6 24.4001 662.3 29.4001 656.9 33.6001C656.3 32.8001 656 32.0001 655.4 31.3001C651.8 26.2001 646.8 22.6001 640.8 21.4001C634.2 20.1001 627.5 20.0001 621.2 23.2001C618 24.8001 616.2 27.3001 615.9 30.9001C615.5 34.8001 616.8 37.9001 620.1 40.0001C622.5 41.5001 625.2 42.6001 628 43.4001C635 45.4001 642 47.2001 648.9 49.1001C655.4 50.9001 661.5 53.4001 666.8 57.9001C672.1 62.5001 675.4 68.2001 676 75.1001C676.6 81.3001 676.7 87.7001 674.5 93.8001C672.5 99.2001 669.5 103.8 664.8 107.2C659.4 111.1 653.3 113.3 646.7 114.3C637.7 115.7 628.7 115.8 619.7 114.1C607.8 111.8 597.9 106 590.9 94.9001Z" fill="white"/>
</svg>