<svg width="774" height="211" viewBox="0 0 774 211" fill="none" xmlns="http://www.w3.org/2000/svg">
<path d="M555.1 189.7C554.9 193.8 553.8 197.5 551.7 200.7C549.7 203.9 546.8 206.3 543.1 208.1C539.4 209.8 535.2 210.7 530.4 210.7C522.6 210.7 516.4 208.2 511.9 203.1C507.4 198 505.2 190.8 505.2 181.5V178.6C505.2 172.8 506.2 167.7 508.2 163.3C510.2 158.9 513.2 155.5 517 153.2C520.8 150.8 525.2 149.6 530.2 149.6C537.4 149.6 543.2 151.5 547.6 155.3C552 159.1 554.5 164.3 555.1 171H540.8C540.7 167.4 539.8 164.8 538.1 163.2C536.4 161.6 533.8 160.8 530.2 160.8C526.6 160.8 524 162.1 522.4 164.8C520.7 167.5 519.9 171.7 519.8 177.6V181.8C519.8 188.2 520.6 192.7 522.2 195.4C523.8 198.1 526.5 199.5 530.4 199.5C533.7 199.5 536.2 198.7 538 197.2C539.7 195.6 540.7 193.2 540.8 189.8H555.1V189.7Z" fill="black"/>
<path d="M579.3 198.9H607.8V209.9H561.4V202.3L589.8 161.5H561.2V150.4H607.5V157.7L579.3 198.9Z" fill="black"/>
<path d="M653.8 184.6H631.2V198.9H657.9V209.9H616.9V150.4H658V161.5H631.2V174H653.8V184.6Z" fill="black"/>
<path d="M713.2 189.7C713 193.8 711.9 197.5 709.8 200.7C707.8 203.9 704.9 206.3 701.2 208.1C697.5 209.8 693.3 210.7 688.5 210.7C680.7 210.7 674.5 208.2 670 203.1C665.5 198 663.3 190.8 663.3 181.5V178.6C663.3 172.8 664.3 167.7 666.3 163.3C668.3 158.9 671.3 155.5 675.1 153.2C678.9 150.8 683.3 149.6 688.3 149.6C695.5 149.6 701.3 151.5 705.7 155.3C710.1 159.1 712.6 164.3 713.2 171H698.9C698.8 167.4 697.9 164.8 696.2 163.2C694.5 161.6 691.9 160.8 688.3 160.8C684.7 160.8 682.1 162.1 680.5 164.8C678.8 167.5 678 171.7 677.9 177.6V181.8C677.9 188.2 678.7 192.7 680.3 195.4C681.9 198.1 684.6 199.5 688.5 199.5C691.8 199.5 694.3 198.7 696.1 197.2C697.8 195.6 698.8 193.2 698.9 189.8H713.2V189.7Z" fill="black"/>
<path d="M769.7 209.9H755.5V185H734.3V209.9H720V150.4H734.3V174H755.5V150.4H769.7V209.9Z" fill="black"/>
<path d="M0.799988 172.1V152C1.39999 150.8 1.99999 151 2.59999 151C20.4 151 38.2 150.9 56 151.1C58.4 151.1 60.7 150.9 63.1 150.9C90.9 150.9 118.6 150.9 146.4 150.9C151.6 150.9 156.8 150.9 161.9 150.9C167.2 150.9 172.5 150.9 177.8 150.9H193.5H209.4H225.1H241H256.7H272.6H288.3H304.2H319.9H335.8H351.5H367.4H383.1H399H414.7H430.6H446.3H462.2C467.4 150.9 472.7 150.9 477.9 150.9C479.3 150.9 480.8 150.6 482.3 151.3C482.9 154.7 482.5 158.1 482.6 161.5C482.7 164.9 482.6 168.3 482.6 171.5C482.4 171.8 482.4 171.9 482.3 172C482.2 172.1 482.2 172.2 482.1 172.2C322 172.2 161.9 172.3 1.79999 172.3C1.59999 172.3 1.19999 172.2 0.799988 172.1Z" fill="#DE1A1B"/>
<path d="M297.4 112.6H271.4C258.4 87.1002 245.3 61.3002 232.1 35.5002C231.9 35.6002 231.6 35.6002 231.4 35.7002V112.7C227.6 113 224.1 112.8 220.6 112.8C217.1 112.8 213.5 112.8 210.2 112.8C209.9 112.5 209.7 112.5 209.6 112.4C209.5 112.3 209.4 112.2 209.4 112C209.4 76.1002 209.3 40.1002 209.3 4.2002C209.3 3.8002 209.5 3.40019 209.6 2.90019H238.5C250.5 26.8002 262.7 51.0002 274.9 75.1002C275.3 75.0002 275.5 75.0002 275.6 75.0002C275.7 74.9002 275.8 74.8002 275.8 74.7002C275.9 74.3002 276 73.9002 276 73.5002C276 50.1002 276 26.7002 276 2.8002C279.5 2.8002 283 2.7002 286.5 2.7002C290 2.7002 293.6 2.7002 297.1 2.7002C297.9 5.6002 298.1 107.2 297.4 112.6Z" fill="black"/>
<path d="M688 94.5002C693.8 90.1002 699.3 85.9002 705 81.5002C706.2 82.9002 707.2 84.1002 708.2 85.3002C713.3 91.4002 719.9 94.5002 727.8 94.9002C733 95.1002 738.2 95.2002 743.2 93.3002C747.8 91.5002 750.3 88.1002 750.8 83.4002C751.2 78.9002 749 75.2002 745 72.8002C740.5 70.1002 735.4 69.0002 730.4 67.6002C723.3 65.6002 716.1 63.9002 709.3 61.0002C701.4 57.6002 694.8 52.8002 691.8 44.2002C687 30.1002 691.3 11.0002 709.1 4.10023C714.5 2.00023 720.1 0.900219 725.9 0.700219C732.2 0.400219 738.5 0.400219 744.7 1.70022C754.7 3.80022 763.1 8.60022 769.2 16.9002C769.8 17.8002 770.3 18.5002 771 19.8002C765.7 24.0002 759.4 29.0002 754 33.2002C753.4 32.4002 753.1 31.6002 752.5 30.9002C748.9 25.8002 743.9 22.2002 737.9 21.0002C731.3 19.7002 724.6 19.6002 718.3 22.8002C715.1 24.4002 713.3 26.9002 713 30.5002C712.6 34.4002 713.9 37.5002 717.2 39.6002C719.6 41.1002 722.3 42.2002 725.1 43.0002C732.1 45.0002 739.1 46.8002 746 48.7002C752.5 50.5002 758.6 53.0002 763.9 57.5002C769.2 62.1002 772.5 67.8002 773.1 74.7002C773.7 80.9002 773.8 87.3002 771.6 93.4002C769.6 98.8002 766.6 103.4 761.9 106.8C756.5 110.7 750.4 112.9 743.8 113.9C734.8 115.3 725.8 115.4 716.8 113.7C704.9 111.5 695 105.7 688 94.5002Z" fill="black"/>
<path d="M379.9 2.9001H405.9C392.2 18.8001 378.8 34.3001 365.2 50.0001C379.7 70.7001 394.2 91.4001 408.9 112.5C404.2 113.1 399.8 112.7 395.4 112.7C390.9 112.8 386.4 112.7 381.4 112.7C371.1 97.7001 361.3 82.3001 350.9 66.9001C348.2 69.1001 346.4 72.1001 343.9 74.6001V112.5H321.8V3.0001C325.3 2.3001 329 2.8001 332.6 2.7001C336.1 2.6001 339.7 2.7001 343.5 2.7001C344.1 6.3001 343.7 9.80011 343.8 13.3001C343.9 16.7001 343.8 20.2001 343.8 23.6001V34.3001V45.5001C350.7 38.2001 356.3 30.9001 362.3 23.9001C368.3 16.9001 374.1 9.8001 379.9 2.9001Z" fill="black"/>
<path d="M576.5 22.3H528.7C527.8 25 527.5 39.5 528.3 45.9H569C569.8 49.4 569.3 52.7 569.4 55.9C569.5 59 569.4 62.2 569.4 65.8H528.2V92.4H576.8V112.6H506.2C505.3 112 505.5 111 505.5 110C505.5 79 505.5 48 505.6 17C505.6 13.3 505.4 9.6 505.5 6C505.5 5.1 505.3 4.1 506 3H576.5C576.9 5.6 577.1 16.4 576.5 22.3Z" fill="black"/>
<path d="M491.6 112.6H423.6C422.9 109.8 422.7 8.6002 423.3 3.3002C426.1 2.6002 441.3 2.40019 445.6 3.20019V47.4002V91.6002C445.9 91.9002 446 92.0002 446.1 92.1002C446.2 92.2002 446.3 92.3002 446.4 92.3002C461.3 92.3002 476.3 92.3002 491.1 92.3002C492 95.2002 492.2 106.3 491.6 112.6Z" fill="black"/>
<path d="M80.1 65.3001C76 58.9001 69.6 56.0001 62.5 54.4001C61.4 54.1001 59.9 54.6001 59.1 53.1001C60.4 52.7001 61.7 52.3001 62.9 51.9001C70.9 49.0001 75.9 43.4001 77.5 35.1001C78.2 31.7001 78 28.3001 77.8 24.8001C77.3 15.4001 71.5 8.70013 62.5 5.70013C55.5 3.40013 48.4 2.70013 41.1 2.70013C28.3 2.70013 15.6 2.70013 2.8 2.70013C1.9 2.70013 0.9 2.40014 0 3.10014V112.1C0.6 112.8 1.2 112.8 1.7 112.8C15.8 112.8 30 112.9 44.1 112.7C51.2 112.6 58.2 111.5 65 109C74.1 105.5 80.6 99.7001 83.1 90.0001C83.7 87.6001 83.9 85.1001 84.1 82.7001C84.7 76.5001 83.5 70.6001 80.1 65.3001ZM22.6 22.1001C26.7 22.1001 31 22.1001 35.2 22.1001C39.2 22.1001 43.1 22.1001 47 23.0001C52.6 24.3001 55.4 27.3001 55.6 32.4001C55.9 38.4001 53.4 42.3001 48.1 44.1001C45.8 44.9001 43.4 45.5001 40.9 45.5001C35.4 45.5001 30 45.5001 24.5 45.6001C23.8 45.6001 23.1 45.7001 22.5 45.2001C22 41.9001 22 25.8001 22.6 22.1001ZM56.7 89.4001C54.2 91.3001 51.1 92.2001 47.9 92.4001C40 93.0001 32.1 93.1001 24.2 93.0001C23.7 93.0001 23.1 93.0001 22.7 92.5001C22 89.6001 22 69.2001 22.7 65.2001C31.3 65.4001 39.8 64.8001 48.2 65.9001C50.1 66.1001 51.9 66.6001 53.7 67.2001C57.7 68.5001 60.3 71.2001 60.9 75.3001C61.9 80.7001 61.4 85.8001 56.7 89.4001Z" fill="black"/>
<path d="M158.4 2.80029H129.1C117 39.3003 105 75.9003 92.8 112.6H115C117.3 105.3 119.7 98.0003 122 90.7003H164.7C167.2 98.2003 169.6 105.5 171.9 112.5H194.7C182.6 75.8003 170.5 39.3003 158.4 2.80029ZM128.7 70.8003C130.8 63.1003 133.4 55.9003 135.7 48.6003C138 41.2003 140.6 33.9003 143.3 25.6003C146.4 33.7003 148.5 41.1003 150.9 48.3003C153.3 55.7003 155.7 63.0003 158.2 70.9003H128.7V70.8003Z" fill="black"/>
<path d="M590.9 94.5002C596.7 90.1002 602.2 85.9002 607.9 81.5002C609.1 82.9002 610.1 84.1002 611.1 85.3002C616.2 91.4002 622.8 94.5002 630.7 94.9002C635.9 95.1002 641.1 95.2002 646.1 93.3002C650.7 91.5002 653.2 88.1002 653.7 83.4002C654.1 78.9002 651.9 75.2002 647.9 72.8002C643.4 70.1002 638.3 69.0002 633.3 67.6002C626.2 65.6002 619 63.9002 612.2 61.0002C604.3 57.6002 597.7 52.8002 594.7 44.2002C589.9 30.1002 594.2 11.0002 612 4.10023C617.4 2.00023 623 0.900219 628.8 0.700219C635.1 0.400219 641.4 0.400219 647.6 1.70022C657.6 3.80022 666 8.60022 672.1 16.9002C672.7 17.8002 673.2 18.5002 673.9 19.8002C668.6 24.0002 662.3 29.0002 656.9 33.2002C656.3 32.4002 656 31.6002 655.4 30.9002C651.8 25.8002 646.8 22.2002 640.8 21.0002C634.2 19.7002 627.5 19.6002 621.2 22.8002C618 24.4002 616.2 26.9002 615.9 30.5002C615.5 34.4002 616.8 37.5002 620.1 39.6002C622.5 41.1002 625.2 42.2002 628 43.0002C635 45.0002 642 46.8002 648.9 48.7002C655.4 50.5002 661.5 53.0002 666.8 57.5002C672.1 62.1002 675.4 67.8002 676 74.7002C676.6 80.9002 676.7 87.3002 674.5 93.4002C672.5 98.8002 669.5 103.4 664.8 106.8C659.4 110.7 653.3 112.9 646.7 113.9C637.7 115.3 628.7 115.4 619.7 113.7C607.8 111.5 597.9 105.7 590.9 94.5002Z" fill="black"/>
</svg>